HIERARCHY
ROOT Hips
{
	OFFSET 0.000000 97.167313 0.000000
	CHANNELS 6 Xposition Yposition Zposition Xrotation Yrotation Zrotation
	JOINT Spine
	{
		OFFSET 0.000000 13.784798 0.064400
		CHANNELS 3 Xrotation Yrotation Zrotation
		JOINT Spine1
		{
			OFFSET 0.000000 12.037903 0.404700
			CHANNELS 3 Xrotation Yrotation Zrotation
			JOINT Spine2
			{
				OFFSET 0.000000 17.795601 0.420200
				CHANNELS 3 Xrotation Yrotation Zrotation
				JOINT Neck
				{
					OFFSET 0.000000 39.131302 11.954600
					CHANNELS 3 Xrotation Yrotation Zrotation
					JOINT Head
					{
						OFFSET 0.000000 14.456192 15.627699
						CHANNELS 3 Xrotation Yrotation Zrotation
						JOINT HeadTop_End
						{
							OFFSET 0.000000 15.703506 7.603401
							CHANNELS 3 Xrotation Yrotation Zrotation
							End Site
							{
								OFFSET 0.000000 17.447403 0.000000
							}
						}
					}
				}
				JOINT LeftShoulder
				{
					OFFSET 17.399500 24.608795 1.168800
					CHANNELS 3 Xrotation Yrotation Zrotation
					JOINT LeftArm
					{
						OFFSET 18.980635 5.765305 1.818600
						CHANNELS 3 Xrotation Yrotation Zrotation
						JOINT LeftForeArm
						{
							OFFSET 49.290169 0.000000 0.000000
							CHANNELS 3 Xrotation Yrotation Zrotation
							JOINT LeftHand
							{
								OFFSET 31.562012 0.000000 0.000000
								CHANNELS 3 Xrotation Yrotation Zrotation
								JOINT LeftHandThumb1
								{
									OFFSET 6.133995 -4.388519 7.076070
									CHANNELS 3 Xrotation Yrotation Zrotation
									JOINT LeftHandThumb2
									{
										OFFSET 6.037666 -3.485840 3.485847
										CHANNELS 3 Xrotation Yrotation Zrotation
										JOINT LeftHandThumb3
										{
											OFFSET 6.496506 -3.750763 3.750761
											CHANNELS 3 Xrotation Yrotation Zrotation
											JOINT LeftHandThumb4
											{
												OFFSET 5.616882 -3.242905 3.242910
												CHANNELS 3 Xrotation Yrotation Zrotation
												End Site
												{
													OFFSET -1.254608 7.132141 0.375429
												}
											}
										}
									}
								}
								JOINT LeftHandPinky1
								{
									OFFSET 18.920792 -0.453171 -11.426712
									CHANNELS 3 Xrotation Yrotation Zrotation
									JOINT LeftHandPinky2
									{
										OFFSET 4.919586 0.000000 0.000000
										CHANNELS 3 Xrotation Yrotation Zrotation
										JOINT LeftHandPinky3
										{
											OFFSET 5.233047 0.000000 0.000000
											CHANNELS 3 Xrotation Yrotation Zrotation
											JOINT LeftHandPinky4
											{
												OFFSET 5.571716 0.000000 0.000000
												CHANNELS 3 Xrotation Yrotation Zrotation
												End Site
												{
													OFFSET -3.459808 4.342407 -0.466164
												}
											}
										}
									}
								}
								JOINT LeftHandRing1
								{
									OFFSET 22.726120 -0.094986 -6.500475
									CHANNELS 3 Xrotation Yrotation Zrotation
									JOINT LeftHandRing2
									{
										OFFSET 6.408615 0.000000 0.000000
										CHANNELS 3 Xrotation Yrotation Zrotation
										JOINT LeftHandRing3
										{
											OFFSET 6.150223 0.000000 0.000000
											CHANNELS 3 Xrotation Yrotation Zrotation
											JOINT LeftHandRing4
											{
												OFFSET 6.145386 0.000000 0.000000
												CHANNELS 3 Xrotation Yrotation Zrotation
												End Site
												{
													OFFSET -3.671402 4.923981 -0.202372
												}
											}
										}
									}
								}
								JOINT LeftHandMiddle1
								{
									OFFSET 23.373947 0.000000 0.000001
									CHANNELS 3 Xrotation Yrotation Zrotation
									JOINT LeftHandMiddle2
									{
										OFFSET 6.996567 0.000000 0.000000
										CHANNELS 3 Xrotation Yrotation Zrotation
										JOINT LeftHandMiddle3
										{
											OFFSET 7.015945 0.000000 0.000000
											CHANNELS 3 Xrotation Yrotation Zrotation
											JOINT LeftHandMiddle4
											{
												OFFSET 7.721573 0.000000 0.000000
												CHANNELS 3 Xrotation Yrotation Zrotation
												End Site
												{
													OFFSET -4.651108 6.158463 0.251582
												}
											}
										}
									}
								}
								JOINT LeftHandIndex1
								{
									OFFSET 21.310577 -0.490082 6.209344
									CHANNELS 3 Xrotation Yrotation Zrotation
									JOINT LeftHandIndex2
									{
										OFFSET 7.536453 0.000000 0.000000
										CHANNELS 3 Xrotation Yrotation Zrotation
										JOINT LeftHandIndex3
										{
											OFFSET 7.512344 0.000000 0.000000
											CHANNELS 3 Xrotation Yrotation Zrotation
											JOINT LeftHandIndex4
											{
												OFFSET 10.212402 0.000000 0.000001
												CHANNELS 3 Xrotation Yrotation Zrotation
												End Site
												{
													OFFSET -5.180801 8.690506 1.388433
												}
											}
										}
									}
								}
							}
						}
					}
				}
				JOINT RightShoulder
				{
					OFFSET -17.399500 24.608795 1.168800
					CHANNELS 3 Xrotation Yrotation Zrotation
					JOINT RightArm
					{
						OFFSET -18.980635 5.765305 1.818600
						CHANNELS 3 Xrotation Yrotation Zrotation
						JOINT RightForeArm
						{
							OFFSET -49.290169 0.000000 0.000000
							CHANNELS 3 Xrotation Yrotation Zrotation
							JOINT RightHand
							{
								OFFSET -31.562012 0.000000 0.000000
								CHANNELS 3 Xrotation Yrotation Zrotation
								JOINT RightHandThumb1
								{
									OFFSET -6.133995 -4.388519 7.076070
									CHANNELS 3 Xrotation Yrotation Zrotation
									JOINT RightHandThumb2
									{
										OFFSET -6.037666 -3.485840 3.485847
										CHANNELS 3 Xrotation Yrotation Zrotation
										JOINT RightHandThumb3
										{
											OFFSET -6.496506 -3.750763 3.750761
											CHANNELS 3 Xrotation Yrotation Zrotation
											JOINT RightHandThumb4
											{
												OFFSET -5.616882 -3.242905 3.242910
												CHANNELS 3 Xrotation Yrotation Zrotation
												End Site
												{
													OFFSET 1.254608 7.132141 0.375429
												}
											}
										}
									}
								}
								JOINT RightHandIndex1
								{
									OFFSET -21.310577 -0.490082 6.209344
									CHANNELS 3 Xrotation Yrotation Zrotation
									JOINT RightHandIndex2
									{
										OFFSET -7.536453 0.000000 0.000000
										CHANNELS 3 Xrotation Yrotation Zrotation
										JOINT RightHandIndex3
										{
											OFFSET -7.512344 0.000000 0.000000
											CHANNELS 3 Xrotation Yrotation Zrotation
											JOINT RightHandIndex4
											{
												OFFSET -10.212402 0.000000 0.000001
												CHANNELS 3 Xrotation Yrotation Zrotation
												End Site
												{
													OFFSET 5.180801 8.690506 1.388433
												}
											}
										}
									}
								}
								JOINT RightHandMiddle1
								{
									OFFSET -23.373947 0.000000 0.000001
									CHANNELS 3 Xrotation Yrotation Zrotation
									JOINT RightHandMiddle2
									{
										OFFSET -6.996567 0.000000 0.000000
										CHANNELS 3 Xrotation Yrotation Zrotation
										JOINT RightHandMiddle3
										{
											OFFSET -7.015945 0.000000 0.000000
											CHANNELS 3 Xrotation Yrotation Zrotation
											JOINT RightHandMiddle4
											{
												OFFSET -7.721573 0.000000 0.000000
												CHANNELS 3 Xrotation Yrotation Zrotation
												End Site
												{
													OFFSET 4.651108 6.158463 0.251582
												}
											}
										}
									}
								}
								JOINT RightHandRing1
								{
									OFFSET -22.726120 -0.094986 -6.500475
									CHANNELS 3 Xrotation Yrotation Zrotation
									JOINT RightHandRing2
									{
										OFFSET -6.408615 0.000000 0.000000
										CHANNELS 3 Xrotation Yrotation Zrotation
										JOINT RightHandRing3
										{
											OFFSET -6.150223 0.000000 0.000000
											CHANNELS 3 Xrotation Yrotation Zrotation
											JOINT RightHandRing4
											{
												OFFSET -6.145386 0.000000 0.000000
												CHANNELS 3 Xrotation Yrotation Zrotation
												End Site
												{
													OFFSET 3.671402 4.923981 -0.202372
												}
											}
										}
									}
								}
								JOINT RightHandPinky1
								{
									OFFSET -18.920792 -0.453171 -11.426712
									CHANNELS 3 Xrotation Yrotation Zrotation
									JOINT RightHandPinky2
									{
										OFFSET -4.919586 0.000000 0.000000
										CHANNELS 3 Xrotation Yrotation Zrotation
										JOINT RightHandPinky3
										{
											OFFSET -5.233047 0.000000 0.000000
											CHANNELS 3 Xrotation Yrotation Zrotation
											JOINT RightHandPinky4
											{
												OFFSET -5.571716 0.000000 0.000000
												CHANNELS 3 Xrotation Yrotation Zrotation
												End Site
												{
													OFFSET 3.459808 4.342407 -0.466164
												}
											}
										}
									}
								}
							}
						}
					}
				}
			}
		}
	}
	JOINT LeftUpLeg
	{
		OFFSET 19.899099 -7.885101 -3.429500
		CHANNELS 3 Xrotation Yrotation Zrotation
		JOINT LeftLeg
		{
			OFFSET 1.745560 -36.997807 10.304700
			CHANNELS 3 Xrotation Yrotation Zrotation
			JOINT LeftFoot
			{
				OFFSET -1.745558 -29.803308 -13.615400
				CHANNELS 3 Xrotation Yrotation Zrotation
				JOINT LeftToeBase
				{
					OFFSET 1.181900 -18.539904 15.226099
					CHANNELS 3 Xrotation Yrotation Zrotation
					JOINT LeftToe_End
					{
						OFFSET -0.863701 1.402801 16.534700
						CHANNELS 3 Xrotation Yrotation Zrotation
						End Site
						{
							OFFSET 0.000000 16.616566 0.000000
						}
					}
				}
			}
		}
	}
	JOINT RightUpLeg
	{
		OFFSET -19.899099 -7.885101 -3.429500
		CHANNELS 3 Xrotation Yrotation Zrotation
		JOINT RightLeg
		{
			OFFSET -1.745560 -36.997807 10.304700
			CHANNELS 3 Xrotation Yrotation Zrotation
			JOINT RightFoot
			{
				OFFSET 1.745558 -29.803308 -13.615400
				CHANNELS 3 Xrotation Yrotation Zrotation
				JOINT RightToeBase
				{
					OFFSET -1.181900 -18.539904 15.226099
					CHANNELS 3 Xrotation Yrotation Zrotation
					JOINT RightToe_End
					{
						OFFSET 0.863701 1.402801 16.534700
						CHANNELS 3 Xrotation Yrotation Zrotation
						End Site
						{
							OFFSET 0.000000 16.616566 0.000000
						}
					}
				}
			}
		}
	}
}
MOTION
Frames: 4
Frame Time: 0.033333
-2.393595 87.362946 25.017651 -3.753732 -4.313127 3.186556 6.150721 1.924221 -2.934462 1.795682 0.662719 -0.846236 1.854907 0.070952 -1.058835 2.085505 5.595724 1.310393 -5.140951 -9.912759 0.365434 -0.000000 0.000000 -0.000000 0.543711 -15.734164 -15.367167 7.775303 2.819790 -34.602476 -0.000013 -96.907127 -0.000076 -131.062478 -13.587840 9.046946 -16.920935 -26.367052 -1.145339 4.934892 10.049661 0.826915 -8.428244 -6.447428 11.499989 -0.000001 -0.000000 0.000001 6.403973 8.362661 -80.414296 1.641653 4.067633 -43.943200 0.636271 2.657132 -26.928222 -0.000000 0.000000 -0.000006 4.717026 8.075515 -77.582281 1.969069 4.381142 -48.385552 0.863180 3.062618 -31.473631 0.000002 0.000000 0.000003 2.434383 7.296042 -69.364075 3.194203 5.214921 -62.953799 0.319537 1.910127 -18.992529 0.000001 0.000000 0.000001 -3.535902 4.218156 -63.724326 3.297445 5.266135 -64.083888 0.484574 2.334886 -23.446291 -0.000003 0.000003 0.000001 0.268691 19.174098 11.364580 3.516711 25.339939 38.259127 0.000060 99.390768 -0.000036 -31.709314 -20.225264 26.226746 20.470570 7.475580 18.843573 4.151731 -12.160913 -33.847986 -6.346162 -41.944045 -36.535495 0.000002 0.000000 0.000002 -0.887084 1.427997 12.684524 1.917404 -3.767473 53.934319 3.058015 -4.374567 69.896775 -0.000001 -0.000002 0.000003 0.770909 -5.199594 54.618823 5.563871 -4.568237 101.238594 4.771462 -4.655761 91.407882 -0.000001 -0.000000 -0.000004 6.934474 -8.544285 63.908755 2.909306 -4.317390 67.934735 1.862851 -3.727193 53.099458 0.000000 0.000004 -0.000001 8.373386 -8.171771 73.989943 2.173701 -3.940960 57.745384 1.041997 -2.937906 39.049872 -0.000002 -0.000001 0.000007 -21.388804 4.656751 4.769198 27.438465 1.579679 1.069389 -0.240053 12.911738 -7.086703 -0.000053 -0.000003 -0.000002 -0.000000 0.000000 -0.000000 0.891663 -15.245117 -13.062744 41.181229 -5.413240 -1.938400 -15.353137 -6.853326 11.978904 -17.226490 -1.741181 5.468952 -0.000000 0.000000 0.000000 
-3.088439 88.277519 25.592409 -4.248452 -4.320602 3.156268 5.648568 2.030164 -2.674046 1.761477 0.698429 -0.773675 1.812827 0.145425 -1.082209 2.288136 5.627230 1.349647 -3.442560 -9.783066 0.441466 -0.000000 0.000000 -0.000000 0.304217 -15.866548 -16.385147 8.861239 3.390654 -34.079219 -0.000079 -96.794921 -0.000067 -131.352433 -13.380279 9.202218 -16.303894 -25.194242 -0.366850 4.434414 8.817232 0.563558 -8.286473 -5.721105 11.705946 -0.000001 0.000001 -0.000002 6.403965 8.362684 -80.414296 1.649338 4.075572 -44.051281 0.636268 2.657137 -26.928226 -0.000000 0.000001 -0.000000 4.717013 8.075536 -77.582268 1.977334 4.388476 -48.493725 0.950197 3.200197 -33.066339 0.000002 0.000000 -0.000004 2.434376 7.296063 -69.364075 3.204074 5.219938 -63.062215 0.374834 2.063703 -20.586991 -0.000000 -0.000000 0.000004 -3.535903 4.218180 -63.724326 3.307385 5.270942 -64.192379 0.552062 2.484619 -25.051641 -0.000001 0.000001 -0.000001 0.373829 19.186100 11.259336 4.667836 25.496524 37.976770 0.000147 99.192693 -0.000109 -32.358066 -20.160287 25.765635 20.470569 7.475573 18.843578 4.151734 -12.160919 -33.847986 -6.346160 -41.944035 -36.535495 0.000002 -0.000003 0.000002 -0.887084 1.427992 12.684526 1.917403 -3.767471 53.934319 3.058012 -4.374571 69.896775 -0.000001 -0.000003 0.000003 0.770907 -5.199598 54.618823 5.563872 -4.568232 101.238594 4.771461 -4.655763 91.407882 -0.000001 0.000001 -0.000001 6.934474 -8.544289 63.908755 2.909300 -4.317387 67.934735 1.862852 -3.727193 53.099451 -0.000001 0.000004 -0.000005 8.373382 -8.171770 73.989937 2.173706 -3.940967 57.745384 1.041996 -2.937906 39.049875 0.000002 -0.000001 0.000007 -19.109966 5.571434 5.422532 24.935441 1.590041 1.072433 0.484769 11.833715 -7.480001 -0.000053 -0.000003 -0.000002 0.000000 -0.000000 0.000000 2.416137 -15.114579 -11.266510 36.157532 -6.314152 -2.146533 -20.145407 -7.816159 11.813467 -9.655985 -0.497244 3.156609 -0.000000 -0.000000 -0.000000 
-3.576109 89.198929 26.086830 -4.731307 -4.289675 3.048857 5.324981 2.102047 -2.414216 1.722763 0.722211 -0.736145 1.765978 0.226338 -1.107605 2.405926 5.605335 1.408012 -1.924635 -9.656226 0.652510 -0.000000 0.000001 -0.000000 0.096754 -15.978283 -17.251079 9.615101 3.439986 -33.730763 0.000060 -96.071604 0.000026 -131.591955 -12.777269 9.277059 -15.661103 -23.924085 0.432573 3.877968 7.461553 0.261655 -8.118283 -4.839558 11.952994 -0.000000 -0.000000 -0.000002 6.403969 8.362657 -80.414290 1.654079 4.080424 -44.117797 0.636271 2.657134 -26.928222 -0.000002 -0.000001 -0.000008 4.717028 8.075532 -77.582268 1.982462 4.392931 -48.560289 1.041908 3.336649 -34.675118 -0.000000 0.000000 0.000003 2.434396 7.296052 -69.364054 3.210148 5.222994 -63.128973 0.434964 2.217138 -22.197416 -0.000000 -0.000001 0.000004 -3.535884 4.218166 -63.724313 3.313518 5.273905 -64.259075 0.624506 2.633855 -26.673207 -0.000000 0.000001 0.000003 0.456111 19.153999 11.245503 5.771732 25.453373 37.765690 -0.000190 98.989296 0.000210 -32.861341 -20.152623 25.201163 20.470564 7.475577 18.843582 4.151732 -12.160916 -33.847986 -6.346163 -41.944038 -36.535491 0.000003 0.000000 -0.000001 -0.887084 1.427988 12.684528 1.917400 -3.767471 53.934319 3.058007 -4.374569 69.896775 0.000001 -0.000001 -0.000002 0.770909 -5.199598 54.618823 5.563872 -4.568234 101.238594 4.771462 -4.655763 91.407882 0.000000 0.000000 -0.000008 6.934476 -8.544287 63.908755 2.909299 -4.317386 67.934735 1.862853 -3.727194 53.099448 -0.000002 0.000000 -0.000005 8.373385 -8.171773 73.989937 2.173705 -3.940964 57.745384 1.041996 -2.937911 39.049875 0.000000 0.000000 0.000007 -16.957290 6.542624 5.939943 22.393912 1.684903 1.095298 1.289554 10.659014 -7.704770 -0.000053 -0.000003 -0.000002 -0.000000 -0.000000 0.000000 4.607092 -15.155268 -9.515270 29.790324 -6.895643 -2.374583 -23.004803 -8.456346 11.358877 -3.340789 -0.035173 1.314464 -0.000000 -0.000003 0.000000 
-3.875538 90.209671 26.488390 -5.217924 -4.232297 2.864311 5.184566 2.117303 -2.152513 1.679589 0.722211 -0.736145 1.714292 0.301711 -1.131266 2.444233 5.564713 1.460388 -0.621934 -9.596399 0.956664 -0.000000 -0.000000 -0.000000 -0.105435 -16.084612 -18.081451 10.109348 3.078549 -33.400021 0.000014 -94.912937 -0.000041 -131.748175 -11.871594 9.438267 -15.016757 -22.594288 1.232332 3.285969 6.037288 -0.069637 -7.937879 -3.868854 12.221490 -0.000003 0.000002 -0.000004 6.403967 8.362664 -80.414283 1.658382 4.084879 -44.178350 0.636269 2.657132 -26.928222 0.000000 -0.000000 -0.000001 4.717032 8.075519 -77.582261 1.987072 4.397035 -48.620883 1.137599 3.470633 -36.286620 0.000000 -0.000001 0.000003 2.434395 7.296058 -69.364068 3.215659 5.225796 -63.189714 0.499535 2.369039 -23.810460 -0.000000 -0.000001 0.000004 -3.535884 4.218176 -63.724326 3.319117 5.276587 -64.319864 0.701233 2.781176 -28.297363 -0.000003 0.000001 0.000001 0.524329 19.059706 11.277545 6.824841 25.206562 37.708279 -0.000170 98.770703 0.000236 -33.275766 -20.158419 24.575396 20.470570 7.475577 18.843580 4.151732 -12.160920 -33.847986 -6.346166 -41.944038 -36.535491 0.000000 -0.000001 -0.000001 -0.887083 1.427990 12.684531 1.917403 -3.767473 53.934322 3.058011 -4.374571 69.896775 -0.000002 -0.000003 -0.000002 0.770909 -5.199595 54.618820 5.563873 -4.568237 101.238594 4.771462 -4.655762 91.407882 0.000001 0.000001 -0.000004 6.934475 -8.544286 63.908755 2.909302 -4.317389 67.934735 1.862850 -3.727193 53.099455 -0.000001 -0.000001 -0.000007 8.373388 -8.171771 73.989943 2.173706 -3.940965 57.745384 1.041997 -2.937910 39.049872 -0.000001 0.000002 0.000001 -14.787537 7.559450 6.262961 19.557748 1.677344 1.162131 2.313125 9.609864 -7.752444 -0.000053 -0.000003 -0.000002 -0.000000 0.000002 0.000000 7.493056 -15.415320 -7.917960 22.354041 -7.153783 -2.555265 -23.165338 -8.644275 10.868223 -2.368618 -0.000008 0.000001 0.000000 0.000000 0.000000 
